<svg width="212" height="254" viewBox="0 0 212 254" fill="none" xmlns="http://www.w3.org/2000/svg">
<path fill-rule="evenodd" clip-rule="evenodd" d="M112.238 211.833C167.877 208.604 212 162.458 212 106.007C212 47.4608 164.542 0 106 0C47.4578 0 0 47.4608 0 106.007C0 161.936 43.3102 207.749 98.2197 211.732C100.79 221.469 101.498 228.73 97.0318 233.732C77.8165 262.182 137.064 258.352 113.045 233.732C112.808 232.825 112.568 231.947 112.335 231.091C110.495 224.344 109.033 218.985 112.238 211.833Z" fill="#F05A28"/>
<path d="M141.744 70.2599H141.738L152.365 72.3843C152.936 72.4984 153.405 72.917 153.57 73.4814C153.653 73.7555 153.661 74.0471 153.592 74.3252C153.522 74.6032 153.379 74.8573 153.177 75.0604L144.471 83.7736C143.429 84.8134 142.017 85.3972 140.546 85.397H133.329L115.194 103.54C115.54 104.846 115.604 106.212 115.381 107.545C115.158 108.878 114.653 110.148 113.901 111.271C113.149 112.393 112.166 113.343 111.018 114.056C109.869 114.769 108.583 115.229 107.243 115.406C105.903 115.583 104.541 115.472 103.247 115.081C101.954 114.69 100.758 114.027 99.7405 113.138C98.7229 112.249 97.9064 111.153 97.3456 109.923C96.7847 108.693 96.4923 107.358 96.4878 106.007C96.4888 104.548 96.8252 103.108 97.4711 101.8C98.117 100.491 99.055 99.3487 100.213 98.4605C101.371 97.5724 102.717 96.9623 104.148 96.6775C105.579 96.3927 107.057 96.4408 108.466 96.818L126.608 78.6687V71.4584C126.608 69.9872 127.191 68.5731 128.231 67.5331L136.944 58.8199C137.147 58.6178 137.401 58.4745 137.679 58.4052C137.957 58.336 138.249 58.3434 138.523 58.4267C139.087 58.5916 139.506 59.0609 139.62 59.6316L141.744 70.2599Z" fill="white"/>
<path d="M67.953 106.007C67.9596 111.448 69.1328 116.824 71.3935 121.772C73.6542 126.721 76.95 131.127 81.0583 134.694C85.1667 138.261 89.9921 140.905 95.2091 142.448C100.426 143.991 105.913 144.397 111.301 143.639C116.688 142.881 121.85 140.976 126.439 138.053C131.027 135.13 134.936 131.257 137.901 126.695C140.865 122.133 142.817 116.989 143.625 111.608C144.432 106.228 144.076 100.737 142.581 95.5053C142.371 94.8941 142.288 94.2466 142.336 93.6022C142.384 92.9578 142.563 92.33 142.862 91.7569C143.161 91.1839 143.573 90.6776 144.074 90.269C144.574 89.8603 145.153 89.5578 145.774 89.3799C146.395 89.202 147.046 89.1524 147.687 89.234C148.328 89.3157 148.946 89.527 149.502 89.855C150.059 90.183 150.543 90.6209 150.925 91.1421C151.307 91.6632 151.579 92.2566 151.725 92.8863C154.62 103.017 154.07 113.822 150.162 123.606C146.253 133.391 139.208 141.601 130.13 146.949C121.052 152.296 110.456 154.479 100.004 153.154C89.5524 151.83 79.8358 147.073 72.3791 139.629C64.9305 132.174 60.1686 122.456 58.841 112.001C57.5133 101.546 59.6951 90.9459 65.0439 81.8652C70.3927 72.7846 78.6054 65.7375 88.3928 61.8304C98.1802 57.9233 108.988 57.3774 119.119 60.2784C120.325 60.6311 121.343 61.4469 121.95 62.5477C122.557 63.6485 122.703 64.9447 122.357 66.153C122.011 67.3613 121.2 68.3835 120.103 68.9962C119.006 69.6089 117.71 69.7623 116.5 69.4228C110.835 67.7973 104.87 67.51 99.0745 68.5836C93.2793 69.6572 87.8127 72.0624 83.1056 75.6095C78.3986 79.1567 74.5797 83.7488 71.9502 89.0238C69.3207 94.2988 67.9523 100.113 67.953 106.007Z" fill="white"/>
<path d="M86.9766 106.007C86.9769 109.473 87.9236 112.873 89.7144 115.841C91.5052 118.809 94.0722 121.231 97.1386 122.847C100.205 124.463 103.654 125.21 107.114 125.01C110.574 124.809 113.914 123.668 116.773 121.708C119.632 119.744 121.899 117.035 123.329 113.876C124.76 110.716 125.3 107.225 124.89 103.781C124.779 102.945 124.893 102.095 125.22 101.318C125.547 100.541 126.075 99.8646 126.75 99.3595C127.425 98.8543 128.222 98.5382 129.06 98.4437C129.898 98.3492 130.746 98.4798 131.516 98.8218C132.287 99.1595 132.954 99.6954 133.449 100.375C133.945 101.055 134.252 101.853 134.338 102.69C135.027 108.576 133.867 114.53 131.019 119.726C128.17 124.922 123.775 129.103 118.443 131.687C113.111 134.272 107.107 135.133 101.264 134.15C95.4203 133.167 90.028 130.389 85.8349 126.202C81.6419 122.015 78.8562 116.627 77.8645 110.785C76.8727 104.942 77.7242 98.9365 80.3006 93.6003C82.877 88.264 87.0506 83.8623 92.2421 81.0059C97.4337 78.1495 103.386 76.9802 109.272 77.6603C109.902 77.7188 110.514 77.9025 111.073 78.2007C111.631 78.4989 112.124 78.9056 112.523 79.3969C112.923 79.8882 113.22 80.4542 113.397 81.0618C113.575 81.6694 113.629 82.3063 113.558 82.9353C113.486 83.5642 113.289 84.1725 112.979 84.7245C112.669 85.2764 112.253 85.761 111.753 86.1497C111.253 86.5385 110.681 86.8236 110.07 86.9883C109.459 87.1531 108.821 87.1941 108.194 87.1091C105.528 86.7996 102.828 87.0576 100.269 87.866C97.7103 88.6744 95.3516 90.015 93.3477 91.7998C91.3439 93.5845 89.7403 95.773 88.6422 98.2216C87.5442 100.67 86.9765 103.323 86.9766 106.007Z" fill="white"/>
</svg>
