<svg width="212" height="254" viewBox="0 0 212 254" fill="none" xmlns="http://www.w3.org/2000/svg">
<path fill-rule="evenodd" clip-rule="evenodd" d="M112.238 211.825C167.877 208.596 212 162.452 212 106.003C212 47.4591 164.542 0 106 0C47.4578 0 0 47.4591 0 106.003C0 161.93 43.3099 207.741 98.2192 211.724C100.79 221.46 101.497 228.722 97.0314 233.723C77.8161 262.172 137.064 258.342 113.044 233.723C112.807 232.816 112.568 231.938 112.334 231.082C110.494 224.336 109.033 218.976 112.238 211.825Z" fill="#05428C"/>
<path d="M106.357 106.121C108.722 106.121 110.639 104.204 110.639 101.839C110.639 99.4737 108.722 97.5566 106.357 97.5566C103.992 97.5566 102.075 99.4737 102.075 101.839C102.075 104.204 103.992 106.121 106.357 106.121Z" stroke="white" stroke-width="4" stroke-linecap="round" stroke-linejoin="round"/>
<path d="M106.357 125.779C119.578 125.779 130.297 115.06 130.297 101.838C130.297 88.6162 119.578 77.8976 106.357 77.8976C93.1349 77.8976 82.4165 88.6162 82.4165 101.838C82.4165 115.06 93.1349 125.779 106.357 125.779Z" stroke="white" stroke-width="4" stroke-linecap="round" stroke-linejoin="round"/>
<path d="M106.357 141.589C131.746 141.589 161.985 118.253 161.985 101.838C161.985 85.4233 131.746 62.0873 106.357 62.0873M106.357 141.589C80.9675 141.589 50.7285 118.253 50.7285 101.838C50.7285 85.4233 80.9675 62.0873 106.357 62.0873" stroke="white" stroke-width="4" stroke-linecap="round" stroke-linejoin="round"/>
</svg>
